M48
; DRILL file {KiCad 9.0.6} date 2025-12-30T21:58:54-0800
; FORMAT={-:-/ absolute / metric / decimal}
; #@! TF.CreationDate,2025-12-30T21:58:54-08:00
; #@! TF.GenerationSoftware,Kicad,Pcbnew,9.0.6
; #@! TF.FileFunction,Plated,1,2,PTH
FMAT,2
METRIC
; #@! TA.AperFunction,Plated,PTH,ViaDrill
T1C0.300
; #@! TA.AperFunction,Plated,PTH,ComponentDrill
T2C1.000
; #@! TA.AperFunction,Plated,PTH,ComponentDrill
T3C1.020
; #@! TA.AperFunction,Plated,PTH,ComponentDrill
T4C1.500
%
G90
G05
T1
X38.1Y-56.515
X44.45Y-75.565
X45.085Y-32.385
X45.72Y-113.03
X46.355Y-56.515
X48.26Y-93.98
X55.245Y-75.565
X61.595Y-93.98
X64.135Y-32.385
X66.675Y-113.03
X67.31Y-56.515
X75.565Y-75.565
X80.645Y-74.93
X81.28Y-93.98
X85.09Y-56.515
X86.36Y-113.03
X86.995Y-32.385
X94.615Y-75.565
X100.965Y-93.98
X104.14Y-56.515
X104.775Y-113.03
X105.41Y-32.385
X114.3Y-75.565
X116.205Y-76.2
X120.015Y-93.98
X123.19Y-56.515
X123.825Y-113.03
X128.905Y-32.385
X132.08Y-75.565
X139.065Y-93.98
X140.97Y-56.515
X142.24Y-113.03
X145.415Y-113.665
X151.13Y-75.565
X151.765Y-32.385
X155.575Y-93.98
X159.385Y-56.515
X159.385Y-93.345
X161.925Y-113.03
X170.18Y-75.565
X171.45Y-32.385
X175.26Y-93.98
X177.8Y-56.515
X180.34Y-113.03
X183.515Y-94.615
X187.96Y-75.565
X192.405Y-32.385
X194.31Y-93.98
X198.12Y-56.515
X198.755Y-113.03
X202.565Y-95.25
X207.645Y-32.385
X207.645Y-75.565
X212.725Y-93.98
X217.17Y-56.515
X217.17Y-113.03
X226.695Y-75.565
X231.775Y-93.98
X235.585Y-113.03
X236.22Y-56.515
X237.49Y-32.385
X245.745Y-75.565
X250.825Y-93.98
X255.27Y-32.385
X255.905Y-56.515
X266.065Y-75.565
X266.065Y-113.03
X271.78Y-110.49
X272.415Y-99.695
X273.05Y-32.385
X281.305Y-56.515
X281.305Y-93.98
X287.655Y-75.565
X294.005Y-32.385
X294.64Y-113.665
X295.275Y-114.3
X298.45Y-75.565
X300.99Y-76.835
X300.99Y-92.71
X301.563Y-86.422
X302.26Y-116.205
X304.8Y-96.52
X309.88Y-88.9
X310.896Y-97.536
X311.15Y-88.9
X313.055Y-90.17
X314.96Y-84.455
X315.802Y-84.413
X316.23Y-88.265
X316.865Y-83.185
X319.972Y-98.992
X321.056Y-104.14
X321.31Y-55.88
X321.945Y-97.05
X322.456Y-98.301
X323.714Y-65.541
X323.85Y-58.42
X324.104Y-108.204
X324.612Y-98.044
X326.39Y-97.155
X327.66Y-82.55
X327.66Y-83.82
X327.66Y-90.64
X327.66Y-91.44
X328.295Y-65.405
X329.184Y-112.776
X329.231Y-81.188
X329.565Y-81.915
X329.565Y-85.09
X329.565Y-90.64
X329.565Y-91.44
X329.565Y-99.06
X329.692Y-87.884
X330.835Y-86.36
X330.959Y-88.389
X332.105Y-85.725
X332.575Y-90.015
X332.74Y-47.625
X332.74Y-86.995
X332.74Y-118.745
X333.375Y-85.725
X333.375Y-87.63
X333.375Y-90.015
X333.375Y-100.33
X334.645Y-118.745
X335.28Y-43.815
X335.756Y-132.55
X339.09Y-56.515
X340.995Y-68.58
X342.9Y-20.955
X344.805Y-37.465
X345.44Y-55.88
X347.462Y-64.77
X347.783Y-38.606
X348.615Y-72.39
X348.624Y-88.256
X349.665Y-83.82
X351.155Y-81.915
X353.695Y-55.88
X353.695Y-71.755
X358.14Y-59.055
X358.784Y-90.796
X360.68Y-53.975
X361.95Y-57.785
X363.22Y-54.61
X363.855Y-76.835
X364.733Y-74.383
T2
X304.8Y-17.78
X304.8Y-20.32
X304.8Y-22.86
X304.8Y-25.4
X347.45Y-18.812
X347.45Y-21.312
X347.45Y-23.812
X361.95Y-18.812
X361.95Y-23.812
T3
X312.19Y-75.565
X312.19Y-93.345
X312.42Y-81.915
X312.42Y-84.455
X312.42Y-86.995
X314.73Y-75.565
X314.73Y-93.345
X317.27Y-75.565
X317.27Y-93.345
X319.81Y-75.565
X319.81Y-93.345
X322.35Y-75.565
X322.35Y-93.345
X324.89Y-75.565
X324.89Y-93.345
X327.43Y-75.565
X327.43Y-93.345
X329.97Y-75.565
X329.97Y-93.345
X332.51Y-75.565
X332.51Y-93.345
X335.05Y-75.565
X335.05Y-93.345
X337.59Y-75.565
X337.59Y-93.345
X340.13Y-75.565
X340.13Y-93.345
X342.67Y-75.565
X342.67Y-93.345
X345.21Y-75.565
X345.21Y-93.345
X347.75Y-75.565
X347.75Y-93.345
X350.29Y-75.565
X350.29Y-93.345
X352.83Y-75.565
X352.83Y-93.345
X355.37Y-75.565
X355.37Y-93.345
X357.91Y-75.565
X357.91Y-93.345
X360.45Y-75.565
X360.45Y-93.345
T4
X17.621Y-18.891
X17.621Y-42.704
X20.002Y-118.904
X22.384Y-61.754
X23.971Y-16.351
X23.971Y-40.164
X24.765Y-80.804
X26.352Y-116.364
X28.734Y-59.214
X29.527Y-99.854
X31.115Y-78.264
X35.877Y-97.314
X36.671Y-42.704
X43.021Y-40.164
X43.815Y-118.904
X46.196Y-61.754
X50.165Y-116.364
X50.959Y-80.804
X52.546Y-59.214
X55.721Y-18.891
X55.721Y-42.704
X57.309Y-78.264
X60.484Y-99.854
X62.071Y-16.351
X62.071Y-40.164
X65.246Y-61.754
X66.834Y-97.314
X67.627Y-118.904
X70.009Y-80.804
X71.596Y-59.214
X73.977Y-116.364
X74.771Y-18.891
X74.771Y-42.704
X76.359Y-78.264
X79.534Y-99.854
X81.121Y-16.351
X81.121Y-40.164
X84.296Y-61.754
X85.884Y-97.314
X89.059Y-80.804
X90.646Y-59.214
X93.821Y-18.891
X93.821Y-42.704
X95.409Y-78.264
X98.584Y-99.854
X100.171Y-16.351
X100.171Y-40.164
X103.346Y-61.754
X104.934Y-97.314
X108.109Y-80.804
X109.696Y-59.214
X112.871Y-18.891
X112.871Y-42.704
X114.459Y-78.264
X117.634Y-99.854
X119.221Y-16.351
X119.221Y-40.164
X122.396Y-61.754
X123.984Y-97.314
X127.159Y-80.804
X128.746Y-59.214
X131.921Y-42.704
X133.509Y-78.264
X136.684Y-99.854
X138.271Y-40.164
X139.065Y-118.904
X141.446Y-18.891
X141.446Y-61.754
X143.034Y-97.314
X145.415Y-116.364
X146.209Y-80.804
X147.796Y-16.351
X147.796Y-59.214
X150.971Y-42.704
X152.559Y-78.264
X155.734Y-99.854
X157.321Y-40.164
X160.496Y-18.891
X160.496Y-61.754
X162.084Y-97.314
X165.259Y-80.804
X166.846Y-16.351
X166.846Y-59.214
X170.021Y-42.704
X171.609Y-78.264
X174.784Y-99.854
X176.371Y-40.164
X179.546Y-18.891
X179.546Y-61.754
X181.134Y-97.314
X184.309Y-80.804
X185.896Y-16.351
X185.896Y-59.214
X189.071Y-42.704
X190.659Y-78.264
X193.834Y-99.854
X195.421Y-40.164
X198.596Y-18.891
X198.596Y-61.754
X200.184Y-97.314
X203.359Y-80.804
X204.946Y-16.351
X204.946Y-59.214
X208.121Y-42.704
X209.709Y-78.264
X210.502Y-118.904
X212.884Y-99.854
X214.471Y-40.164
X216.852Y-116.364
X217.646Y-61.754
X219.234Y-97.314
X222.409Y-80.804
X223.996Y-59.214
X227.171Y-18.891
X227.171Y-42.704
X228.759Y-78.264
X231.934Y-99.854
X233.521Y-16.351
X233.521Y-40.164
X234.315Y-118.904
X236.696Y-61.754
X238.284Y-97.314
X240.665Y-116.364
X241.459Y-80.804
X243.046Y-59.214
X246.221Y-18.891
X246.221Y-42.704
X247.809Y-78.264
X252.571Y-16.351
X252.571Y-40.164
X255.746Y-61.754
X258.127Y-118.904
X262.096Y-59.214
X264.477Y-116.364
X265.271Y-18.891
X267.652Y-99.854
X271.621Y-16.351
X272.415Y-80.804
X274.002Y-97.314
X274.796Y-42.704
X278.765Y-78.264
X279.559Y-61.754
X281.146Y-40.164
X281.94Y-118.904
X284.321Y-18.891
X285.909Y-59.214
X288.29Y-116.364
X290.671Y-16.351
X308.134Y-42.704
X308.134Y-61.754
X308.134Y-118.904
X314.484Y-40.164
X314.484Y-59.214
X314.484Y-116.364
X327.184Y-42.704
X327.184Y-61.754
X327.184Y-99.854
X327.184Y-118.904
X333.534Y-40.164
X333.534Y-59.214
X333.534Y-97.314
X333.534Y-116.364
X346.234Y-42.704
X346.234Y-61.754
X346.234Y-118.904
X352.584Y-40.164
X352.584Y-59.214
X352.584Y-116.364
T4
X354.3Y-15.712G85X355.6Y-15.712
G05
X354.3Y-26.912G85X355.6Y-26.912
G05
M30
