M48
; DRILL file {KiCad 9.0.6} date 2025-12-30T21:58:54-0800
; FORMAT={-:-/ absolute / metric / decimal}
; #@! TF.CreationDate,2025-12-30T21:58:54-08:00
; #@! TF.GenerationSoftware,Kicad,Pcbnew,9.0.6
; #@! TF.FileFunction,NonPlated,1,2,NPTH
FMAT,2
METRIC
; #@! TA.AperFunction,NonPlated,NPTH,ComponentDrill
T1C1.500
; #@! TA.AperFunction,NonPlated,NPTH,ComponentDrill
T2C1.700
; #@! TA.AperFunction,NonPlated,NPTH,ComponentDrill
T3C1.800
; #@! TA.AperFunction,NonPlated,NPTH,ComponentDrill
T4C4.000
%
G90
G05
T1
X357.29Y-82.03
X357.29Y-86.88
T2
X16.351Y-21.431
X16.351Y-45.244
X18.732Y-121.444
X21.114Y-64.294
X23.495Y-83.344
X26.511Y-21.431
X26.511Y-45.244
X28.258Y-102.394
X28.892Y-121.444
X31.274Y-64.294
X33.655Y-83.344
X35.401Y-45.244
X38.417Y-102.394
X42.545Y-121.444
X44.926Y-64.294
X45.561Y-45.244
X49.689Y-83.344
X52.705Y-121.444
X54.451Y-21.431
X54.451Y-45.244
X55.086Y-64.294
X59.214Y-102.394
X59.849Y-83.344
X63.976Y-64.294
X64.611Y-21.431
X64.611Y-45.244
X66.358Y-121.444
X68.739Y-83.344
X69.374Y-102.394
X73.501Y-21.431
X73.501Y-45.244
X74.136Y-64.294
X76.517Y-121.444
X78.264Y-102.394
X78.899Y-83.344
X83.026Y-64.294
X83.661Y-21.431
X83.661Y-45.244
X87.789Y-83.344
X88.424Y-102.394
X92.551Y-21.431
X92.551Y-45.244
X93.186Y-64.294
X97.314Y-102.394
X97.949Y-83.344
X102.076Y-64.294
X102.711Y-21.431
X102.711Y-45.244
X106.839Y-83.344
X107.474Y-102.394
X111.601Y-21.431
X111.601Y-45.244
X112.236Y-64.294
X116.364Y-102.394
X116.999Y-83.344
X121.126Y-64.294
X121.761Y-21.431
X121.761Y-45.244
X125.889Y-83.344
X126.524Y-102.394
X130.651Y-45.244
X131.286Y-64.294
X135.414Y-102.394
X136.049Y-83.344
X137.795Y-121.444
X140.176Y-21.431
X140.176Y-64.294
X140.811Y-45.244
X144.939Y-83.344
X145.574Y-102.394
X147.955Y-121.444
X149.701Y-45.244
X150.336Y-21.431
X150.336Y-64.294
X154.464Y-102.394
X155.099Y-83.344
X159.226Y-21.431
X159.226Y-64.294
X159.861Y-45.244
X163.989Y-83.344
X164.624Y-102.394
X168.751Y-45.244
X169.386Y-21.431
X169.386Y-64.294
X173.514Y-102.394
X174.149Y-83.344
X178.276Y-21.431
X178.276Y-64.294
X178.911Y-45.244
X183.039Y-83.344
X183.674Y-102.394
X187.801Y-45.244
X188.436Y-21.431
X188.436Y-64.294
X192.564Y-102.394
X193.199Y-83.344
X197.326Y-21.431
X197.326Y-64.294
X197.961Y-45.244
X202.089Y-83.344
X202.724Y-102.394
X206.851Y-45.244
X207.486Y-21.431
X207.486Y-64.294
X209.232Y-121.444
X211.614Y-102.394
X212.249Y-83.344
X216.376Y-64.294
X217.011Y-45.244
X219.392Y-121.444
X221.139Y-83.344
X221.774Y-102.394
X225.901Y-21.431
X225.901Y-45.244
X226.536Y-64.294
X230.664Y-102.394
X231.299Y-83.344
X233.045Y-121.444
X235.426Y-64.294
X236.061Y-21.431
X236.061Y-45.244
X240.189Y-83.344
X240.824Y-102.394
X243.205Y-121.444
X244.951Y-21.431
X244.951Y-45.244
X245.586Y-64.294
X250.349Y-83.344
X254.476Y-64.294
X255.111Y-21.431
X255.111Y-45.244
X256.858Y-121.444
X264.001Y-21.431
X264.636Y-64.294
X266.382Y-102.394
X267.017Y-121.444
X271.145Y-83.344
X273.526Y-45.244
X274.161Y-21.431
X276.542Y-102.394
X278.289Y-64.294
X280.67Y-121.444
X281.305Y-83.344
X283.051Y-21.431
X283.686Y-45.244
X288.449Y-64.294
X290.83Y-121.444
X293.211Y-21.431
X306.864Y-45.244
X306.864Y-64.294
X306.864Y-121.444
X317.024Y-45.244
X317.024Y-64.294
X317.024Y-121.444
X325.914Y-45.244
X325.914Y-64.294
X325.914Y-102.394
X325.914Y-121.444
X336.074Y-45.244
X336.074Y-64.294
X336.074Y-102.394
X336.074Y-121.444
X344.964Y-45.244
X344.964Y-64.294
X344.964Y-121.444
X355.124Y-45.244
X355.124Y-64.294
X355.124Y-121.444
T3
X360.32Y-81.73
X360.32Y-87.18
T4
X21.431Y-21.431
X21.431Y-45.244
X23.812Y-121.444
X26.194Y-64.294
X28.575Y-83.344
X33.337Y-102.394
X40.481Y-45.244
X47.625Y-121.444
X50.006Y-64.294
X54.769Y-83.344
X59.531Y-21.431
X59.531Y-45.244
X64.294Y-102.394
X69.056Y-64.294
X71.438Y-121.444
X73.819Y-83.344
X78.581Y-21.431
X78.581Y-45.244
X83.344Y-102.394
X88.106Y-64.294
X92.869Y-83.344
X97.631Y-21.431
X97.631Y-45.244
X102.394Y-102.394
X107.156Y-64.294
X111.919Y-83.344
X116.681Y-21.431
X116.681Y-45.244
X121.444Y-102.394
X126.206Y-64.294
X130.969Y-83.344
X135.731Y-45.244
X140.494Y-102.394
X142.875Y-121.444
X145.256Y-21.431
X145.256Y-64.294
X150.019Y-83.344
X154.781Y-45.244
X159.544Y-102.394
X164.306Y-21.431
X164.306Y-64.294
X169.069Y-83.344
X173.831Y-45.244
X178.594Y-102.394
X183.356Y-21.431
X183.356Y-64.294
X188.119Y-83.344
X192.881Y-45.244
X197.644Y-102.394
X202.406Y-21.431
X202.406Y-64.294
X207.169Y-83.344
X211.931Y-45.244
X214.312Y-121.444
X216.694Y-102.394
X221.456Y-64.294
X226.219Y-83.344
X230.981Y-21.431
X230.981Y-45.244
X235.744Y-102.394
X238.125Y-121.444
X240.506Y-64.294
X245.269Y-83.344
X250.031Y-21.431
X250.031Y-45.244
X259.556Y-64.294
X261.938Y-121.444
X269.081Y-21.431
X271.462Y-102.394
X276.225Y-83.344
X278.606Y-45.244
X283.369Y-64.294
X285.75Y-121.444
X288.131Y-21.431
X311.944Y-45.244
X311.944Y-64.294
X311.944Y-121.444
X330.994Y-45.244
X330.994Y-64.294
X330.994Y-102.394
X330.994Y-121.444
X350.044Y-45.244
X350.044Y-64.294
X350.044Y-121.444
M30
